HIERARCHY
ROOT Hips
{
	OFFSET -69.278358 106.759491 -5.755437
	CHANNELS 6 Xposition Yposition Zposition Xrotation Yrotation Zrotation
	JOINT Chest
	{
		OFFSET 1.042465 13.603867 0.047939
		CHANNELS 3 Xrotation Yrotation Zrotation
		JOINT Chest2
		{
			OFFSET 3.041466 21.151505 1.558745
			CHANNELS 3 Xrotation Yrotation Zrotation
			JOINT Chest3
			{
				OFFSET 0.078392 14.780762 2.083929
				CHANNELS 3 Xrotation Yrotation Zrotation
				JOINT Neck
				{
					OFFSET -0.463951 17.229431 1.244048
					CHANNELS 3 Xrotation Yrotation Zrotation
					JOINT Head
					{
						OFFSET 0.763756 10.449265 -0.239522
						CHANNELS 3 Xrotation Yrotation Zrotation
						End Site
						{
							OFFSET 0.701447 10.454422 -0.201739
						}
					}
				}
				JOINT LeftCollar
				{
					OFFSET -0.418770 13.584656 -4.133536
					CHANNELS 3 Xrotation Yrotation Zrotation
					JOINT LeftUpArm
					{
						OFFSET -15.676941 -0.721268 -7.887516
						CHANNELS 3 Xrotation Yrotation Zrotation
						JOINT LeftLowArm
						{
							OFFSET -10.822777 -4.828003 -31.611496
							CHANNELS 3 Xrotation Yrotation Zrotation
							JOINT LeftHand
							{
								OFFSET -10.415833 9.779053 -26.397499
								CHANNELS 3 Xrotation Yrotation Zrotation
								End Site
								{
									OFFSET -2.276466 2.137222 -5.769333
								}
							}
						}
					}
				}
				JOINT RightCollar
				{
					OFFSET 4.422268 13.218735 2.741750
					CHANNELS 3 Xrotation Yrotation Zrotation
					JOINT RightUpArm
					{
						OFFSET 0.746468 -2.032593 17.430086
						CHANNELS 3 Xrotation Yrotation Zrotation
						JOINT RightLowArm
						{
							OFFSET 23.119308 -6.972153 23.592840
							CHANNELS 3 Xrotation Yrotation Zrotation
							JOINT RightHand
							{
								OFFSET 17.727285 4.036804 23.883102
								CHANNELS 3 Xrotation Yrotation Zrotation
								End Site
								{
									OFFSET 3.874467 0.882294 5.219894
								}
							}
						}
					}
				}
			}
		}
	}
	JOINT LeftUpLeg
	{
		OFFSET -5.313278 0.436852 -8.485128
		CHANNELS 3 Xrotation Yrotation Zrotation
		JOINT LeftLowLeg
		{
			OFFSET 5.179955 -45.024422 -13.782551
			CHANNELS 3 Xrotation Yrotation Zrotation
			JOINT LeftFoot
			{
				OFFSET -9.754250 -43.569984 2.660597
				CHANNELS 3 Xrotation Yrotation Zrotation
				JOINT LeftToe
				{
					OFFSET 13.735489 -14.287601 -12.913584
					CHANNELS 3 Xrotation Yrotation Zrotation
					End Site
					{
						OFFSET 17.720131 0.908356 -15.643875
					}
				}
			}
		}
	}
	JOINT RightUpLeg
	{
		OFFSET 5.313267 -0.437050 8.485131
		CHANNELS 3 Xrotation Yrotation Zrotation
		JOINT RightLowLeg
		{
			OFFSET 8.853397 -46.512085 -1.501201
			CHANNELS 3 Xrotation Yrotation Zrotation
			JOINT RightFoot
			{
				OFFSET -23.952950 -35.362907 13.277805
				CHANNELS 3 Xrotation Yrotation Zrotation
				JOINT RightToe
				{
					OFFSET 5.088806 -22.844776 -3.431726
					CHANNELS 3 Xrotation Yrotation Zrotation
					End Site
					{
						OFFSET 17.615070 -13.873156 -7.536644
					}
				}
			}
		}
	}
}
MOTION
Frames: 11
Frame Time: 0.033333
-0.161339 106.130165 -1.111713 2.083446 -122.141158 4.702977 -0.956096 -2.833939 8.381142 -1.096253 1.395895 -3.834084 3.993654 -1.902605 -1.821911 0.565249 4.038519 -1.913328 -0.000000 0.000001 -0.000000 -5.726403 1.941902 -5.713847 12.500109 14.522572 -5.591344 -25.554584 -4.360764 7.916248 0.000001 -0.000000 -0.000000 -3.003326 3.891814 -9.877263 -10.486247 -12.884909 4.605207 9.817963 6.403315 -20.831595 -0.000000 0.000000 0.000003 -10.796630 0.620471 -14.849893 13.725007 4.590815 14.345539 -3.479817 -10.869924 -5.423203 -0.000000 0.000001 0.000000 -7.541068 3.451634 -11.311430 18.044171 1.596924 36.775846 2.547206 11.657142 6.324690 -0.000000 -0.000002 0.000009 
-6.969158 97.186165 -1.108393 47.240269 -116.914889 44.903948 -3.216878 0.326442 1.638822 9.600861 -6.625183 -3.627420 -0.476433 -5.830641 -1.952298 18.795021 -27.364456 -13.662229 0.000000 -0.000001 -0.000000 -2.002135 -16.416990 -7.331804 -29.638349 -24.949822 18.118188 -144.722419 -48.642596 -79.142303 0.000001 -0.000001 0.000001 -4.111131 5.524387 1.833746 -36.818562 -9.810278 24.257367 -35.823410 -3.666443 28.063468 0.000002 0.000002 0.000004 27.796230 -0.280446 -8.907542 -49.744937 8.729394 -20.341623 -5.460968 13.033192 -14.599811 -0.000002 -0.000006 -0.000000 26.522914 4.139524 6.399830 14.021997 -4.771411 -0.300666 -1.768456 -3.733089 10.044982 -0.000003 0.000000 0.000004 
-6.965397 97.182098 -1.113826 47.304162 -116.923795 45.000537 -3.178758 0.309599 1.618487 9.441157 -6.680549 -4.010782 -0.523190 -5.972787 -1.799897 19.329944 -27.715113 -13.398158 -0.000001 -0.000001 0.000002 -2.170769 -16.039115 -7.106600 -30.016383 -25.141175 17.929602 -144.394270 -48.487482 -78.984349 -0.000000 0.000002 0.000001 -4.192303 5.905410 1.650836 -36.871813 -9.945418 23.951076 -34.922269 -3.938832 27.014402 0.000000 -0.000002 0.000000 27.856631 -0.306081 -8.434509 -49.431920 9.111820 -21.157435 -5.608670 12.573382 -14.427115 0.000000 -0.000006 -0.000001 26.336767 4.135510 6.351175 14.290515 -4.924532 -0.489506 -1.893385 -4.054382 10.735832 -0.000001 0.000001 0.000002 
-6.962654 97.169121 -1.120030 46.935185 -117.499102 44.002176 -3.300757 0.320479 2.202082 8.822903 -6.678081 -5.108082 0.161764 -5.588702 -1.152264 20.900695 -28.363662 -12.423859 -0.000000 -0.000003 -0.000000 -1.942238 -16.324103 -7.679034 -29.831118 -26.403119 17.617524 -143.844795 -48.947963 -81.133973 -0.000000 -0.000002 -0.000001 -4.304854 6.208084 1.489365 -36.810137 -10.081795 23.573469 -33.855701 -4.056178 25.855922 -0.000000 0.000000 0.000003 28.073522 -0.300229 -8.744857 -49.599707 8.716306 -20.271366 -5.481812 12.571241 -14.390437 0.000002 -0.000003 0.000004 26.611354 4.148795 6.295002 13.972643 -4.859054 -0.529366 -1.347017 -3.506633 10.711618 -0.000002 -0.000000 0.000003 
-6.958618 97.162109 -1.129920 46.658194 -117.753950 43.742652 -3.209992 0.335770 2.290377 8.889939 -6.658210 -4.933770 0.048136 -5.826060 -1.247039 21.199609 -28.662397 -12.465064 0.000000 -0.000005 0.000001 -2.037046 -16.789044 -7.722798 -30.214523 -25.763419 18.155498 -144.018732 -48.926605 -80.648975 0.000001 0.000000 -0.000001 -4.048082 5.986500 1.567250 -36.485050 -9.176334 24.071808 -32.920043 -5.133202 25.062778 -0.000000 0.000000 0.000001 28.223750 -0.237065 -8.540232 -49.794357 8.945067 -20.661609 -5.731181 12.851956 -14.711833 0.000002 -0.000003 -0.000000 26.720465 4.061455 6.116089 13.826254 -4.813259 -0.326001 -0.904148 -3.056908 10.542943 -0.000001 0.000001 0.000002 
-6.952541 97.144325 -1.129318 45.603855 -118.099790 42.843752 -3.493681 0.341311 2.682623 8.309281 -6.586836 -5.877610 0.530862 -5.870096 -0.848599 22.481458 -29.286342 -11.844112 -0.000001 -0.000005 -0.000001 -2.265860 -16.256718 -7.588580 -29.831715 -27.045437 17.413724 -143.155724 -49.190913 -81.477361 0.000001 -0.000002 -0.000001 -4.128988 6.528008 1.174743 -36.299908 -9.602815 23.094820 -31.884112 -6.012764 23.826603 0.000001 0.000000 0.000001 28.227249 -0.319726 -8.849426 -50.553502 8.633622 -19.874843 -5.262354 12.991781 -14.413806 -0.000000 -0.000001 -0.000000 26.716252 4.134650 6.035730 13.596286 -4.755624 -1.029303 -0.703900 -2.952298 10.806421 -0.000004 -0.000002 0.000001 
-6.935753 97.124527 -1.138300 45.496218 -117.633179 42.559913 -3.596924 0.245306 2.678645 8.554676 -6.247315 -4.856938 -0.143840 -7.029547 -1.953575 22.038968 -28.963291 -12.656992 0.000000 0.000001 -0.000000 -2.818990 -14.585565 -8.211415 -30.313476 -28.987910 15.308623 -139.426701 -50.417062 -84.834112 -0.000000 0.000001 0.000001 -5.052869 6.214115 0.328542 -37.056085 -9.889324 20.598954 -31.058701 -8.322136 21.140706 0.000002 -0.000000 0.000005 28.248804 -0.306698 -7.154029 -52.688796 7.112551 -17.639226 -5.845015 12.342849 -14.322796 0.000003 -0.000003 -0.000002 25.757342 4.420499 7.448986 15.768182 -5.131178 -2.395023 -4.294852 -6.463791 12.196865 -0.000001 -0.000002 0.000001 
-6.918873 97.089645 -1.144677 44.601675 -117.522079 42.145805 -3.912876 0.231487 2.179829 8.896352 -6.119303 -4.054814 -0.721314 -7.768568 -2.556332 22.225229 -29.144646 -12.877250 -0.000000 -0.000001 0.000000 -3.498134 -14.556468 -8.882812 -30.414767 -29.577837 14.017383 -136.823155 -51.469864 -87.617475 -0.000003 -0.000000 -0.000000 -5.676198 6.581933 -0.212888 -37.048336 -10.144644 18.781086 -30.622077 -10.015332 19.392376 -0.000002 0.000000 0.000001 28.152964 -0.300142 -6.954808 -54.157028 6.394354 -16.450738 -6.283295 11.680102 -14.040523 0.000003 -0.000001 0.000001 25.204272 4.375622 7.349172 16.234885 -5.242193 -3.389068 -5.959765 -8.243335 13.471196 -0.000003 -0.000000 0.000003 
-6.899376 97.004166 -1.145168 44.592792 -117.360217 42.352603 -4.695097 0.247545 0.403739 10.120964 -5.950804 -1.353487 -1.837639 -8.213494 -4.445367 22.382376 -29.424711 -12.631075 0.000001 0.000001 -0.000000 -3.710497 -15.078467 -9.777472 -30.823373 -30.708015 13.540175 -134.831800 -52.688202 -90.909859 0.000003 0.000001 0.000002 -6.417477 8.919417 -0.647482 -36.552823 -11.947040 16.814457 -29.819721 -9.896404 18.359234 -0.000002 0.000004 0.000001 28.386119 -0.102901 -5.988600 -56.731073 5.957836 -13.826740 -6.194710 10.598640 -13.241659 0.000000 0.000000 0.000004 24.240854 3.717952 5.698591 18.280431 -6.187740 -0.842278 -10.759304 -14.985112 19.383387 0.000000 -0.000002 0.000003 
-6.879318 96.922165 -1.160676 42.329541 -118.466189 40.536346 -4.784658 0.243097 1.345256 9.654097 -6.065408 -2.666775 -1.395529 -7.414361 -3.785232 22.398453 -29.897521 -13.407156 0.000003 -0.000005 -0.000001 -4.297685 -16.094366 -10.113535 -30.919857 -30.958399 13.111745 -133.652295 -53.469999 -91.304589 -0.000001 0.000002 -0.000000 -5.360119 7.869994 -1.204045 -36.452221 -10.080516 17.002812 -29.586549 -8.566912 18.545816 -0.000001 -0.000002 0.000004 29.172319 -0.467717 -7.000116 -58.356371 5.787511 -13.956090 -4.822744 12.161207 -13.380131 0.000002 -0.000003 0.000000 24.847938 4.257857 6.601799 16.895369 -5.673261 -3.507224 -8.193154 -11.192285 15.893324 -0.000001 -0.000001 0.000002 
-6.852627 96.791199 -1.160578 42.412169 -118.273277 40.634827 -5.150689 0.244976 0.802691 9.121647 -5.988029 -3.195204 -0.885537 -7.892365 -3.529486 22.370569 -30.145959 -13.212674 0.000002 -0.000001 -0.000001 -4.410865 -15.725378 -10.387715 -32.313891 -31.904217 13.136180 -132.215360 -54.106894 -93.221229 0.000004 0.000000 -0.000001 -5.755943 8.781833 -1.468711 -35.814531 -10.009933 15.913992 -29.281444 -9.687585 17.513696 0.000001 -0.000003 0.000003 29.262057 -0.278273 -6.721195 -59.969853 5.983619 -12.889198 -4.914249 10.577061 -12.381807 -0.000001 -0.000003 0.000003 24.017961 3.724594 5.380565 18.193981 -6.584001 -1.906465 -11.342668 -16.510604 21.678312 -0.000001 -0.000001 0.000007 
